<?xml version="1.0" standalone="no"?>
<!DOCTYPE svg PUBLIC "-//W3C//DTD SVG 20010904//EN"
 "http://www.w3.org/TR/2001/REC-SVG-20010904/DTD/svg10.dtd">
<svg version="1.0" xmlns="http://www.w3.org/2000/svg"
 width="421.000000pt" height="320.000000pt" viewBox="0 0 421.000000 320.000000"
 preserveAspectRatio="xMidYMid meet">

<g transform="translate(0.000000,320.000000) scale(0.100000,-0.100000)"
fill="#000000" stroke="none">
<path d="M0 1600 l0 -1600 2105 0 2105 0 0 1600 0 1600 -2105 0 -2105 0 0
-1600z m2235 1251 c56 -25 101 -66 133 -120 24 -40 27 -56 27 -131 0 -75 -3
-91 -27 -132 -35 -59 -89 -103 -150 -124 -46 -15 -48 -17 -48 -52 0 -44 29
-129 59 -171 78 -109 313 -253 956 -586 209 -108 256 -138 321 -205 127 -129
154 -284 71 -407 -46 -67 -61 -68 -52 -5 8 61 -13 154 -49 210 -42 67 -109
116 -304 220 -105 56 -193 102 -197 102 -4 0 -5 -156 -4 -347 l4 -348 -74 -3
-74 -3 6 246 c4 135 3 244 -1 241 -4 -2 -59 -111 -121 -241 l-115 -236 -55 3
c-65 3 -44 -28 -187 278 -52 113 -99 209 -104 214 -6 5 -7 -94 -5 -240 l5
-249 97 -28 c54 -15 121 -34 148 -42 81 -23 323 -73 410 -85 134 -18 279 -14
370 11 132 35 125 35 125 6 0 -33 -30 -177 -41 -198 -17 -33 -141 -54 -309
-53 -214 1 -378 34 -965 194 -143 39 -327 85 -410 103 -143 30 -161 32 -375
32 -184 0 -239 -3 -305 -19 -111 -25 -219 -69 -289 -115 -33 -22 -63 -38 -68
-35 -4 3 -8 61 -8 129 l0 123 38 22 c117 70 318 120 512 129 l145 6 3 155 c2
85 0 210 -4 277 l-6 122 -31 -13 c-100 -43 -362 -176 -418 -213 -37 -23 -78
-58 -91 -75 -62 -82 -89 -181 -69 -254 6 -21 8 -40 5 -43 -3 -3 -21 11 -39 32
-65 75 -83 189 -45 289 25 67 102 168 158 209 23 17 163 89 310 159 762 363
931 469 973 611 7 21 15 39 19 39 4 0 10 28 12 62 4 51 9 65 32 85 15 12 34
23 43 23 34 0 103 51 125 93 27 51 29 137 5 183 -33 63 -114 114 -183 114 -37
0 -108 -30 -138 -58 -32 -30 -65 -96 -66 -129 0 -20 -5 -23 -35 -23 -33 0 -35
2 -35 33 0 79 101 208 182 234 55 18 158 15 203 -6z"/>
<path d="M2080 1932 c-25 -24 -70 -61 -100 -82 -65 -44 -277 -160 -413 -226
-53 -26 -97 -50 -97 -55 0 -5 89 -110 198 -235 108 -124 208 -239 222 -255 14
-16 28 -29 33 -29 4 0 7 115 7 255 l0 255 148 0 c124 0 150 -3 169 -18 12 -9
71 -123 131 -252 60 -129 122 -261 138 -292 l29 -57 148 284 c81 156 147 288
147 292 0 4 -51 35 -113 67 -135 71 -355 197 -417 240 -25 16 -76 58 -115 91
l-70 61 -45 -44z"/>
<path d="M2062 1458 c-9 -9 -12 -95 -12 -324 0 -346 -6 -311 60 -330 20 -5 20
-1 20 318 0 334 -2 348 -40 348 -9 0 -21 -5 -28 -12z"/>
<path d="M1450 1147 c0 -114 3 -207 6 -207 26 0 228 -36 313 -56 57 -13 105
-23 107 -22 2 3 -367 432 -407 473 -19 19 -19 17 -19 -188z"/>
<path d="M1102 910 c-34 -4 -64 -9 -66 -11 -3 -2 -2 -41 1 -87 l6 -83 106 6
c58 3 120 8 138 11 l31 5 4 80 c2 45 1 83 -1 85 -6 6 -147 2 -219 -6z"/>
<path d="M1452 823 l3 -86 130 -22 c151 -26 314 -65 540 -128 88 -25 198 -55
245 -67 47 -11 92 -23 100 -25 12 -4 20 14 34 80 10 47 17 87 15 89 -2 2 -40
12 -84 24 -44 11 -147 39 -230 62 -298 83 -651 160 -732 160 -24 0 -24 -1 -21
-87z"/>
<path d="M865 863 c-44 -13 -83 -28 -87 -31 -4 -4 -1 -43 6 -87 14 -92 5 -89
136 -52 96 27 87 11 82 142 -2 53 -3 55 -29 54 -16 0 -64 -12 -108 -26z"/>
<path d="M698 798 c-21 -12 -39 -26 -40 -32 -2 -6 -2 -52 0 -102 l3 -92 50 32
50 31 -7 74 c-9 112 -11 114 -56 89z"/>
<path d="M2536 570 c-9 -45 -16 -84 -14 -85 6 -6 218 -55 237 -55 15 0 21 16
35 82 9 45 15 82 13 83 -3 3 -192 46 -228 52 -24 5 -26 2 -43 -77z"/>
<path d="M3320 603 c-25 -7 -78 -18 -119 -23 -41 -6 -75 -11 -76 -12 -1 -2 -6
-41 -10 -87 l-7 -84 59 7 c110 12 164 28 173 50 9 25 32 157 28 161 -2 1 -23
-4 -48 -12z"/>
<path d="M2839 588 c-4 -12 -25 -164 -23 -166 6 -8 165 -23 210 -20 l49 3 7
63 c4 34 8 72 10 84 3 19 -2 22 -52 24 -30 2 -88 6 -127 9 -40 3 -73 5 -74 3z"/>
</g>
</svg>
